<svg width="17" height="17" viewBox="0 0 17 17" fill="none" xmlns="http://www.w3.org/2000/svg"><path fill-rule="evenodd" clip-rule="evenodd" d="M13.6273 7.66667c0 3.12963-2.5371 5.66663-5.66669 5.66663-3.12961.0-5.66666-2.537-5.66666-5.66663C2.29395 4.53705 4.831 2 7.96061 2 11.0902 2 13.6273 4.53705 13.6273 7.66667zM12.6283 13.7492C11.3355 14.7427 9.71704 15.3333 7.96061 15.3333c-4.23418.0-7.666665-3.4325-7.666665-7.66663C.293945 3.43248 3.72643.0 7.96061.0 12.1948.0 15.6273 3.43248 15.6273 7.66667c0 1.75676-.5909 3.37553-1.5847 4.66833l2.9578 2.9579-1.4142 1.4142-2.9579-2.9579z" fill="#0e0e0e"/></svg>